<?xml version="1.0" encoding="UTF-8" standalone="no"?>
<!-- Created with Inkscape (http://www.inkscape.org/) -->

<svg
   width="201.64064mm"
   height="132.83197mm"
   viewBox="0 0 201.64064 132.83197"
   version="1.1"
   id="svg5"
   xml:space="preserve"
   xmlns:xlink="http://www.w3.org/1999/xlink"
   xmlns="http://www.w3.org/2000/svg"
   xmlns:svg="http://www.w3.org/2000/svg"><defs
     id="defs2" /><g
     id="layer2"
     transform="translate(-9.3549998,-78.660421)"><path
       style="display:inline;opacity:1;fill:none;stroke:#000000;stroke-width:0.365;stroke-dasharray:1.46, 0.365;stroke-dashoffset:0;stroke-opacity:1"
       d="m 20.669332,205.61432 1.488281,1.28984 3.538802,1.02526 1.223698,1.12448 1.488282,-1.15755 3.869531,-0.69453 h 2.215885 l 0.727604,0.92604 0.297657,1.09141 0.595312,0.59531 2.282031,0.59531 1.5875,0.23151 1.752865,-1.98437 2.910417,-0.4961 1.091406,0.56224 0.959114,-0.79375 0.429948,-1.81901 -1.752864,-1.85208 -0.165365,-0.92604 0.926042,-0.66146 0.959114,0.69453 0.529167,-0.92604 0.760677,-0.0661 2.315104,2.05052 1.951302,1.42214 2.513542,-0.0331 1.223698,0.69453 1.422135,-0.66146 2.348177,0.8599 1.951302,-2.87735 0.892969,-0.0331 1.554427,2.01745 0.892969,-0.66146 1.157552,0.62838 0.992187,0.16537 0.628386,0.99219 1.554427,-1.19063 1.653646,-0.23151 2.447395,-1.71979 1.12448,-0.29766 3.538802,-2.54661 1.02526,-1.2237 0.264583,-4.23333 2.182813,-2.21589 1.5875,-2.48047 0.463021,-1.62057 2.05052,0.23151 -0.429947,3.60495 2.447395,2.3151 2.282032,0.82682 1.81901,2.48047 -1.058333,1.2237 -0.06615,1.88516 0.562239,0.46302 0.892969,-0.92604 2.017448,0.82682 1.984375,1.65365 1.488281,0.33072 1.289844,3.73724 3.307294,-0.46302 2.57968,-0.89297 0.33073,-3.86953 1.15756,-0.92604 3.07578,2.87735 2.21589,0.13229 0.7276,0.99218 1.02526,-0.0661 0.79375,-0.79375 1.98438,1.28984 0.19844,1.5875 0.99218,0.13229 2.21589,1.91823 0.7276,1.38907 2.28204,0.16536 0.69453,-0.99219 0.79375,0.52917 1.05833,-0.46302 2.41432,-2.71198 1.62058,0.0992 2.71197,0.7276 1.05834,-0.82682 1.85208,-1.91823 -0.52917,-1.25677 -1.88515,-0.95911 -2.61276,-2.71198 -0.0992,-4.13412 -1.38906,-1.42213 0.92604,-1.15756 h 0.79375 v -1.78593 l 2.6789,-0.19844 0.33073,-1.15755 2.28204,0.82682 0.85989,-1.05833 -1.9513,-3.30729 -0.72761,-1.95131 -1.42213,-0.26458 -1.25677,1.65365 -0.89297,0.42994 -1.32292,-1.02526 v -0.69453 l -1.55442,-1.42213 2.14974,-2.54662 5.39088,-2.61276 2.57969,-1.5875 h 3.20807 l 0.39688,-2.44739 0.99218,-0.76068 1.05834,0.89297 1.52135,-0.23151 0.56224,-2.14974 0.92604,0.92604 0.95912,-1.25677 4.23333,2.64583 2.08359,-1.68672 1.91823,-0.56224 -1.45521,-1.9513 0.16537,-1.91823 -0.13229,-1.48828 1.78594,-1.81901 -0.1323,-4.13411 -0.52916,-2.61276 1.55442,-3.96875 -0.79375,-1.28985 -2.87734,-1.52135 -1.38906,-1.09141 -1.5875,-0.39687 -0.82683,-2.05052 -0.16536,-2.14974 0.0661,-2.64584 2.38125,-2.05052 -0.0662,-2.48047 1.91823,-0.85989 3.175,0.59531 1.5875,-0.0661 0.49609,1.15756 1.91823,-1.32292 0.66146,-2.14974 -0.39687,-1.38906 2.97656,-0.33073 1.71979,-0.26459 0.16536,-1.32291 3.47266,-0.72761 2.08359,-0.89296 0.99219,-1.35599 1.55443,0.52916 1.91823,-2.87734 2.11666,-0.13229 0.52917,-1.09141 -1.75286,-2.94349 1.5875,-0.76067 0.79375,0.42994 3.47265,-1.62057 2.41433,1.91823 0.89296,0.46302 3.83646,0.0331 2.8112,-0.16536 0.13229,-2.05052 -1.88515,-1.38906 -0.92605,-3.77032 -1.4552,-3.04271 1.42213,-0.99218 0.62839,-1.05834 2.14974,-0.0661 1.15755,-1.4552 0.99219,-0.23151 1.62057,-1.5875 1.28984,1.19062 1.55443,0.59531 1.25677,0.62839 2.48047,0.69453 1.48828,1.71979 1.35599,1.38906 2.51354,0.26459 2.64583,0.39687 0.0661,-1.12448 -2.24896,-0.79375 -2.54661,-1.45521 -0.39688,-3.07578 -0.69453,-1.88515 h -1.48828 l -0.95911,-2.18282 -1.48829,-2.18281 -1.19062,-0.46302 -2.18281,-1.65364 -0.26459,-2.315108 1.55443,-0.03307 0.59531,-2.943489 -3.20807,-0.859896 -0.16536,-1.256771 -1.25677,0.06615 -0.62839,-2.182813 -1.19063,-1.389062 v -1.752865 l -0.82682,-1.554427 1.35599,-0.859896 1.19063,-3.274218 -0.95912,-0.859896 -1.25677,-0.09922 -1.65364,-1.918229 -4.36563,-0.396875 -3.93568,1.488281 -1.45521,0.330729 -0.85989,-1.02526 -1.9513,0.429948 -2.48047,2.017448 -4.13412,1.091406 0.52917,2.447396 -0.13229,6.184635 0.99219,1.521354 2.05052,2.282032 0.0661,3.307291 -1.68672,-0.959114 -1.25677,-1.819011 -2.87734,-0.429948 -4.69635,-2.215885 -3.40651,0.165364 -2.91042,1.951303 h -3.77031 l -1.62058,-0.892969 -1.88515,0.09922 0.0992,1.389062 -1.65365,0.992187 -1.38906,-0.429947 -3.43959,1.289843 -0.23151,3.5388 -2.54661,1.28985 -2.38125,-0.0661 -2.57969,-2.77813 -5.8539,-0.06615 -3.3073,0.56224 -3.96875,-0.0992 -3.14192,-0.661458 -4.89479,0.165365 -2.94349,0.297653 -2.84428,2.94349 -2.05052,-1.52135 -2.18281,1.85208 -2.9435,-0.29765 -2.51354,4.23333 -1.025257,5.45703 -3.340364,0.59531 -2.414323,0.29766 -1.389063,3.24114 -1.091406,0.19844 -1.058333,1.45521 -4.630209,0.76068 -0.46302,3.27422 -0.79375,1.25676 -1.389063,0.0992 -2.248958,-3.67109 -1.653646,0.92604 -1.455208,-0.69453 h -1.5875 l -0.429948,-1.9513 -4.299479,0.46302 -2.778125,0.76068 -1.35599,-1.09141 -1.719792,-0.0662 -1.355989,0.79375 -1.124479,-0.89297 -4.398698,0.36381 -2.711979,-3.90261 -3.439584,-1.05833 -2.943489,0.92604 -5.291667,-3.27422 -5.258593,-0.16536 -1.984375,1.02526 -2.38125,-1.19063 -1.455209,0.26459 -1.488281,-0.69454 -1.951302,6.81302 -2.844271,0.0331 -3.472656,0.79375 -0.892969,1.98438 -0.628385,1.5875 -3.604948,0.56224 -2.282031,2.3151 -2.645833,0.66146 0.330729,2.48047 -1.5875,1.35599 -0.429948,0.99219 -1.7859378,0.49609 0.7276038,2.14974 0.165365,2.21589 1.35599,1.32291 -0.661459,1.75287 0.892969,0.7276 2.348177,-0.7276 0.694531,-1.02526 1.984375,0.66146 3.373438,0.85989 0.06615,2.05052 3.472656,0.36381 2.678906,-0.0992 1.058333,1.28984 -2.149739,3.73724 -4.597136,4.16719 -2.910416,2.18281 -1.554427,0.42995 0.79375,1.98437 -1.918229,2.01745 1.5875,2.51354 2.017447,1.62058 3.307292,-2.28204 2.645833,0.82683 -0.46302,5.09323 -0.859896,2.57968 -1.521354,1.19063 -0.463021,2.64583 0.595312,4.00182 3.538802,1.38907 H 27.6806 l 2.414323,2.54661 4.365625,1.55443 2.546615,3.14193 1.785937,4.79557 3.274219,2.41432 0.496094,1.09141 -2.38125,1.81901 -1.35599,1.98437 -3.241146,0.42995 -2.116666,-1.05833 -3.704167,-0.42995 -0.859896,0.7276 2.645834,1.95131 -0.132292,1.68671 -2.910417,0.23152 -1.984375,0.23151 -0.926041,0.92604 -2.447396,-0.69453 -1.223698,0.76067 -1.918229,0.0992 -0.03307,0.76068 0.297656,0.79375 1.289844,0.52917 -0.264583,1.42213 0.297656,1.19063 z"
       id="path584" /></g><g
     id="layer3"
     style="display:inline"
     transform="translate(-9.3549998,-78.660421)"><path
       id="path584-0"
       style="display:inline;fill:#ff0000;fill-opacity:1;stroke:none;stroke-width:0.365;stroke-dasharray:1.46, 0.365;stroke-dashoffset:0;stroke-opacity:1"
       d="m 48.111792,202.45844 -0.02997,-0.0754 -2.338876,-2.9931 H 43.03045 l -2.104781,-2.19832 -0.561206,-2.71301 -0.232544,-0.21808 -1.242818,1.81901 -3.241146,0.42995 -2.116666,-1.05833 -3.704167,-0.42995 -0.859896,0.72761 2.645833,1.9513 -0.132291,1.68672 -2.910417,0.23151 -1.984375,0.23151 -0.926042,0.92604 -2.447395,-0.69453 -1.223698,0.76067 -1.918229,0.0992 -0.03307,0.76068 0.297656,0.79375 1.289844,0.52917 -0.264584,1.42213 0.297657,1.19063 -0.925525,0.0325 1.488281,1.28985 3.538802,1.02526 1.223698,1.12448 1.488281,-1.15756 3.869531,-0.69453 h 2.215886 l 0.727604,0.92605 0.297656,1.0914 0.595313,0.59531 2.282031,0.59532 1.5875,0.23151 1.752865,-1.98438 2.910416,-0.49609 1.091406,0.56224 0.959115,-0.79375 0.429948,-1.81901 -1.752865,-1.85209 -0.165364,-0.92604 0.926041,-0.66146 0.959115,0.69454 0.529167,-0.92605 z" /><path
       id="path3815"
       style="display:inline;fill:#ffff00;fill-opacity:1;stroke:none;stroke-width:0.365;stroke-dasharray:1.46, 0.365;stroke-dashoffset:0;stroke-opacity:1"
       d="m 55.556299,206.05512 0.07235,-0.14314 0.297656,-2.38125 -1.885156,-1.2237 1.752864,-4.53099 -1.81901,0.0331 0.23151,-1.75286 0.826823,-1.65365 -1.124479,-1.68671 -0.330729,-1.55443 -0.826823,-1.05834 0.727604,-1.25677 -1.02526,-1.55442 0.628385,-2.18282 1.35599,-0.16536 -0.992188,-2.77813 -2.083593,-0.99218 0.198437,-2.38125 1.223698,-3.10886 -1.256771,-2.28203 2.612761,-0.69453 2.282031,-2.48047 -3.274219,-1.28984 -1.686719,0.33073 -0.859896,-1.25677 -2.546614,-1.95131 -3.274219,-1.85208 -1.984375,-2.3151 -2.61276,-1.5875 -0.529167,-2.41433 -2.745052,-2.87734 -0.595313,-3.67109 -0.03307,-2.67891 -2.414323,0.52917 -4.861719,-2.8112 0.03307,-1.5875 -0.628386,-0.49609 -0.595312,-1.48829 -0.110071,0.008 -2.04432,3.55379 -4.597135,4.16719 -2.910417,2.18281 -1.554427,0.42995 0.79375,1.98437 -1.918229,2.01745 1.5875,2.51354 2.017448,1.62058 3.307292,-2.28204 2.645833,0.82683 -0.463021,5.09323 -0.859896,2.57968 -1.521354,1.19063 -0.463021,2.64583 0.595313,4.00183 3.538802,1.38906 h 1.885156 l 2.414323,2.54661 4.365625,1.55443 2.546615,3.14193 1.785937,4.79557 3.274219,2.41432 0.496094,1.09141 -2.38125,1.81901 -0.113172,0.16536 0.232544,0.21808 0.561206,2.71301 2.104781,2.19832 h 2.712496 l 2.338876,2.9931 0.02997,0.0754 0.335897,-0.0294 2.315104,2.05052 1.951302,1.42213 2.513542,-0.0331 z" /><path
       id="path5389"
       style="display:inline;fill:#000080;fill-opacity:1;stroke:none;stroke-width:0.365;stroke-dasharray:1.46, 0.365;stroke-dashoffset:0;stroke-opacity:1"
       d="m 84.046549,189.53675 0.0031,-0.48369 -2.011247,-6.45439 2.572453,0.18707 -1.450041,-4.35012 0.514698,-0.93534 -1.590601,-1.63711 -2.291333,-3.5078 0.374137,-1.35651 -0.93586,-1.30948 -4.630208,1.54358 -3.648356,-0.18707 -0.935344,-1.91771 -2.713012,-0.14056 -2.899565,-4.39612 -2.245341,-1.3565 -0.09353,-3.46129 1.169437,-0.2806 -1.028877,-1.35651 -1.590084,-0.18707 -0.327629,-2.29185 -0.982369,1.35651 -1.309481,0.23358 -0.982368,1.02939 0.04703,1.26246 -1.590601,2.1518 0.514698,1.21595 -1.450041,3.27422 1.075903,1.30948 0.935344,2.71301 -0.143661,0.015 0.0186,0.007 -2.282031,2.48047 -2.612761,0.69453 1.256771,2.28203 -1.223698,3.10886 -0.198437,2.38125 2.083593,0.99218 0.992188,2.77813 -1.35599,0.16536 -0.628385,2.18282 1.02526,1.55442 -0.727604,1.25677 0.826823,1.05834 0.330729,1.55443 1.124479,1.68671 -0.826823,1.65365 -0.23151,1.75286 1.81901,-0.0331 -1.752864,4.53099 1.885156,1.2237 -0.297656,2.38125 -0.07235,0.14314 0.895036,0.50798 1.422135,-0.66146 2.348177,0.8599 1.951302,-2.87734 0.892969,-0.0331 1.554427,2.01745 0.892969,-0.66146 1.157552,0.62839 0.992187,0.16536 0.628386,0.99219 1.554427,-1.19062 1.653646,-0.23152 2.447396,-1.71979 1.124479,-0.29765 3.538802,-2.54662 1.02526,-1.2237 0.264584,-4.23333 2.182812,-2.21588 1.5875,-2.48047 z" /><path
       id="path5448"
       style="display:inline;fill:#0000ff;fill-opacity:0.944444;stroke:none;stroke-width:0.365;stroke-dasharray:1.46, 0.365;stroke-dashoffset:0;stroke-opacity:1"
       d="m 57.040963,158.97738 -0.221692,-0.35967 -1.455209,-0.66146 -0.859895,-2.05052 -1.256771,-0.19844 -0.768945,-2.29443 -2.900082,-2.33888 2.151807,-3.92896 1.403015,-3.18016 -2.713013,-0.74828 -2.431893,-0.56172 0.187069,-2.61896 1.028878,-1.59009 -1.122412,-1.21646 -7.01611,0.56121 -2.431892,-0.74828 -2.619479,-0.18707 -2.899564,-2.24482 -1.309481,-2.99362 1.496549,-1.30948 -0.748274,-1.77715 1.590083,-0.84233 4.303097,-2.89956 -1.49655,-1.49707 -0.374137,-2.43189 -2.806547,-0.65474 -1.683618,-1.30948 -3.180685,1.21594 v -2.1518 l -0.253731,-0.12041 -1.999361,0.0233 -3.472656,0.79375 -0.892969,1.98437 -0.628385,1.5875 -3.604948,0.56224 -2.282032,2.31511 -2.645833,0.66145 0.330729,2.48047 -1.5875,1.35599 -0.429948,0.99219 -1.7859372,0.49609 0.7276042,2.14974 0.165365,2.21589 1.355989,1.32291 -0.661458,1.75287 0.892969,0.7276 2.348177,-0.7276 0.694531,-1.02526 1.984375,0.66146 3.373437,0.85989 0.06615,2.05052 3.472656,0.36381 2.678907,-0.0992 1.058333,1.28984 -0.10542,0.18345 0.110071,-0.008 0.595312,1.48829 0.628386,0.49609 -0.03307,1.5875 4.861719,2.8112 2.414323,-0.52917 0.03307,2.67891 0.595313,3.67109 2.745052,2.87734 0.529167,2.41433 2.61276,1.5875 1.984375,2.3151 3.274219,1.85208 2.546614,1.95131 0.859896,1.25677 1.686719,-0.33073 3.255615,1.28261 0.143661,-0.015 -0.935344,-2.71301 -1.075903,-1.30948 1.450041,-3.27422 -0.514698,-1.21595 1.590601,-2.1518 z" /><path
       id="path5507"
       style="display:inline;fill:#800080;fill-opacity:1;stroke:none;stroke-width:0.365;stroke-dasharray:1.46, 0.365;stroke-dashoffset:0;stroke-opacity:1"
       d="m 48.159851,137.3141 0.887284,-0.75603 2.083594,-0.42995 2.315104,1.42214 1.058334,-0.42995 0.09922,-3.27422 1.223698,-0.52916 2.083594,0.52916 1.852083,-1.02526 0.06615,-1.12448 -1.455208,0.0331 -2.282031,-0.36381 -2.116667,0.42995 -0.06615,-1.5875 -1.785937,0.59532 L 50.8,130.5388 l -0.661458,-1.42213 -1.521355,-0.23151 -0.760677,-1.25677 0.694532,-1.42214 1.752864,-0.23151 1.5875,0.59531 1.025261,-0.52916 1.389062,-1.95131 0.463021,-1.5875 1.885156,-0.0661 -0.132291,-2.05052 0.959114,-0.95912 1.025261,-0.29765 0.01447,-0.0527 -0.118339,0.01 -2.711979,-3.9026 -3.439584,-1.05833 -2.943489,0.92604 -5.291667,-3.27422 -5.258594,-0.16536 -1.984375,1.02526 -2.38125,-1.19063 -1.455208,0.26458 -1.488281,-0.69453 -1.951302,6.81302 -0.84491,0.01 0.253731,0.12041 v 2.1518 l 3.180685,-1.21594 1.683618,1.30948 2.806547,0.65474 0.374137,2.43189 1.49655,1.49707 -4.303097,2.89956 -1.590083,0.84233 0.748274,1.77715 -1.496549,1.30948 1.309481,2.99362 2.899564,2.24482 2.619479,0.18707 2.431892,0.74828 7.01611,-0.56121 z" /><path
       id="path5566"
       style="display:inline;fill:#ff00ff;fill-opacity:1;stroke:none;stroke-width:0.365;stroke-dasharray:1.46, 0.365;stroke-dashoffset:0;stroke-opacity:1"
       d="m 60.329134,155.93725 0.05374,-0.13901 1.075903,-2.99361 0.51418,-2.29185 3.554822,-1.21595 3.975468,0.74827 -0.233577,-2.43189 1.917712,-2.05827 3.367236,-1.68362 -0.04651,-2.10478 2.94659,-0.84181 1.917712,-0.46767 2.15129,-1.02939 1.169438,-2.01073 0.982369,-0.2341 1.403015,4.8643 2.338875,-0.047 1.636593,-1.59009 2.900081,0.70177 1.964221,-0.60823 2.806547,1.0759 4.022491,-0.70176 4.81728,-0.51418 0.7953,-1.12293 -1.26298,-1.26246 -2.94659,-1.82418 -1.96422,-0.0935 -3.835418,-0.42116 -3.648356,-0.70177 0.187069,-1.63659 h -1.824178 l -0.467672,-2.66651 -2.15129,-1.16892 0.187069,-3.69486 -1.917713,0.5612 -2.058272,-0.42116 -1.168921,-1.63711 -0.01395,-0.17518 -0.664559,0.0475 -2.248958,-3.67109 -1.653646,0.92604 -1.455208,-0.69453 h -1.5875 l -0.429948,-1.9513 -4.299479,0.46302 -2.778125,0.76067 -1.35599,-1.0914 -1.719791,-0.0662 -1.35599,0.79375 -1.124479,-0.89297 -4.280359,0.35399 -0.01447,0.0527 -1.025261,0.29765 -0.959114,0.95912 0.132291,2.05052 -1.885156,0.0661 -0.463021,1.5875 -1.389062,1.95131 -1.025261,0.52916 -1.5875,-0.59531 -1.752864,0.23151 -0.694532,1.42214 0.760677,1.25677 1.521355,0.23151 0.661458,1.42213 1.322917,0.26459 1.785937,-0.59532 0.06615,1.5875 2.116667,-0.42995 2.282031,0.36381 1.455208,-0.0331 -0.06615,1.12448 -1.852083,1.02526 -2.083594,-0.52916 -1.223698,0.52916 -0.09922,3.27422 -1.058334,0.42995 -2.315104,-1.42214 -2.083594,0.42995 -0.887284,0.75603 1.044381,1.13171 -1.028878,1.59009 -0.187069,2.61896 2.431893,0.56172 2.713013,0.74828 -1.403015,3.18016 -2.151807,3.92896 2.900082,2.33888 0.768945,2.29443 1.256771,0.19844 0.859895,2.05052 1.455209,0.66146 0.221692,0.35967 -0.02584,-0.70022 0.982368,-1.02939 1.309481,-0.23358 0.982369,-1.35651 z" /><path
       id="path5625"
       style="display:inline;fill:#2b0000;fill-opacity:0.983333;stroke:none;stroke-width:0.365;stroke-dasharray:1.46, 0.365;stroke-dashoffset:0;stroke-opacity:1"
       d="m 102.17413,136.16843 1.14566,-4.83226 v -3.18068 l 1.26297,-2.9466 0.23358,-4.6302 2.90008,-0.98237 1.40302,-1.87069 5.379,2.05776 3.08663,0.18706 1.5906,1.82418 3.04013,0.14056 -0.0935,1.77716 3.55431,-0.14005 1.26297,-1.77767 0.7953,-3.08663 3.88193,-1.35651 -0.98237,-1.40353 3.04064,-0.46767 0.74828,1.12293 2.01125,-1.54358 0.23357,-1.77767 1.82418,-2.19831 0.74828,-2.01073 0.23409,-2.15181 -1.16944,-1.91771 0.73846,-2.75384 -1.99419,-2.14767 -5.85391,-0.0662 -3.30729,0.56224 -3.96875,-0.0992 -3.14193,-0.661463 -4.89479,0.165363 -2.94349,0.29766 -2.84427,2.94349 -2.05052,-1.52136 -2.18281,1.85209 -2.94349,-0.29766 -2.51355,4.23333 -1.025256,5.45703 -3.340365,0.59532 -2.414323,0.29765 -1.389062,3.24115 -1.091407,0.19844 -1.058333,1.45521 -4.630208,0.76067 -0.463021,3.27422 -0.79375,1.25677 -0.724504,0.0517 0.01395,0.17518 1.168921,1.63711 2.058272,0.42116 1.917713,-0.5612 -0.187069,3.69486 2.15129,1.16892 0.467672,2.66651 h 1.824178 l -0.187069,1.63659 3.648356,0.70177 3.835425,0.42116 1.96422,0.0935 z" /><path
       id="path5687"
       style="display:inline;fill:#808000;fill-opacity:0.994444;stroke:none;stroke-width:0.365;stroke-dasharray:1.46, 0.365;stroke-dashoffset:0;stroke-opacity:1"
       d="m 79.30627,169.79325 0.664042,-0.7245 4.101042,1.85208 1.455208,-0.52916 -0.06614,-1.78594 0.727604,-1.45521 1.719791,1.45521 -0.06615,1.12448 1.653645,0.7276 0.396875,-1.38906 4.497917,1.45521 1.058333,-1.05834 -0.06614,-2.38125 -0.859896,-2.77812 -1.5875,-1.5875 1.5875,-3.30729 1.653646,-0.19844 2.447395,-1.25677 3.439578,1.5875 1.19063,-0.99219 1.98437,3.77031 2.18281,0.19844 0.59532,-1.38906 3.70416,1.19062 1.45521,-1.65364 -0.13229,-1.5875 2.3151,-0.99219 1.85209,-1.19062 -1.5875,-3.63802 2.64583,-2.51355 1.45521,0.39688 1.05833,-0.92604 -0.52917,-0.99219 1.7198,0.39687 0.99218,-1.05833 -2.05052,-3.30729 -1.52135,-0.66146 -1.71979,-2.57969 -3.30729,-0.19843 -4.69636,-0.46302 -2.77812,0.92604 -1.45521,-1.65365 -0.3359,-0.21291 -4.35322,0.46458 -4.02249,0.70176 -2.806547,-1.0759 -1.964221,0.60823 -2.900081,-0.70177 -1.636593,1.59009 -2.338875,0.047 -1.403015,-4.8643 -0.982369,0.2341 -1.169438,2.01073 -2.15129,1.02939 -1.917712,0.46767 -2.94659,0.84181 0.04651,2.10478 -3.367236,1.68362 -1.917712,2.05827 0.233577,2.43189 -3.975468,-0.74827 -3.554822,1.21595 -0.51418,2.29185 -1.075903,2.99361 -0.05374,0.13901 0.287838,2.01228 1.590084,0.18707 1.028877,1.35651 -1.169437,0.2806 0.09353,3.46129 2.245341,1.3565 2.899565,4.39612 2.713012,0.14056 0.935344,1.91771 3.648356,0.18707 4.630208,-1.54358 z" /><path
       id="path5746"
       style="display:inline;fill:#de8787;fill-opacity:1;stroke:none;stroke-width:0.365;stroke-dasharray:1.46, 0.365;stroke-dashoffset:0;stroke-opacity:1"
       d="m 114.78472,204.97922 1.43351,-1.91151 2.3151,0.13229 0.19844,-1.05833 -1.25677,-0.46302 -2.24896,0.52916 -0.33073,-1.91823 1.91823,-0.26458 0.59531,-0.99219 -1.52135,-0.52916 v -3.3073 l -1.52135,-1.25677 -0.66146,-1.52135 -1.38907,-1.85208 -0.26458,-2.51355 -2.77812,-2.3151 -0.0661,-1.91823 0.8599,-1.38906 0.0661,-1.98438 -4.23333,-0.85989 -1.12448,2.3151 -0.99219,0.52917 -1.12448,-1.5875 -1.98437,-0.46302 0.46302,2.38125 -1.12448,1.19062 -3.96875,-4.36562 -5.622396,-6.01927 -1.918229,-1.05834 0.06615,-2.24896 -0.01395,-0.21497 -0.713651,-0.31419 0.06615,-1.12448 -1.719791,-1.45521 -0.727604,1.45521 0.06614,1.78594 -1.455208,0.52916 -4.101042,-1.85208 -0.664042,0.7245 0.861446,1.20561 -0.374137,1.35651 2.291333,3.5078 1.590601,1.63711 -0.514698,0.93534 1.450041,4.35012 -2.572453,-0.18707 2.011247,6.45439 -0.0031,0.48369 0.08682,-0.30386 2.050521,0.23151 -0.429948,3.60495 2.447396,2.31511 2.282031,0.82682 1.81901,2.48047 -1.058333,1.2237 -0.06615,1.88515 0.56224,0.46302 0.892968,-0.92604 2.017448,0.82682 1.984375,1.65365 1.488282,0.33073 1.289843,3.73724 3.3073,-0.46302 2.57968,-0.89297 0.33073,-3.86953 1.15755,-0.92604 3.07579,2.87734 2.21588,0.13229 0.7276,0.99219 1.02527,-0.0661 0.79375,-0.79375 z" /><path
       id="path5805"
       style="display:inline;fill:#ff7f2a;fill-opacity:1;stroke:none;stroke-width:0.365;stroke-dasharray:1.46, 0.365;stroke-dashoffset:0;stroke-opacity:1"
       d="m 127.56172,184.08385 h -0.76016 l -0.85989,0.26459 -1.12448,1.38906 -2.51354,1.65365 -1.78594,-0.66146 -3.04271,0.7276 -1.91823,-0.52917 -1.05833,1.78594 -1.44798,2.83187 0.65423,0.8723 0.66146,1.52135 1.52135,1.25677 v 3.3073 l 1.52135,0.52916 -0.59531,0.99219 -1.91823,0.26458 0.33073,1.91823 2.24896,-0.52916 1.25677,0.46302 -0.19844,1.05833 -2.3151,-0.13229 -1.43351,1.91151 1.82625,1.18701 0.19844,1.5875 0.99219,0.13229 2.21588,1.91823 0.7276,1.38906 2.28204,0.16537 0.69453,-0.99219 0.79375,0.52916 1.05833,-0.46302 2.41432,-2.71198 1.62058,0.0992 2.71198,0.72761 1.05833,-0.82683 1.85208,-1.91822 -0.52916,-1.25678 -1.88516,-0.95911 -2.61276,-2.71198 -0.0992,-4.13411 -1.38906,-1.42214 0.92604,-1.15755 h 0.79375 v -1.78594 l 2.67891,-0.19844 0.33072,-1.15755 2.28204,0.82682 0.85989,-1.05833 -1.9513,-3.30729 -0.7276,-1.9513 -1.42214,-0.26459 -1.25677,1.65365 -0.89297,0.42995 -1.32292,-1.02526 v -0.69453 l -1.55442,-1.42214 z" /><path
       id="path5866"
       style="display:inline;fill:#ffcc00;fill-opacity:1;stroke:none;stroke-width:0.365;stroke-dasharray:1.46, 0.365;stroke-dashoffset:0;stroke-opacity:1"
       d="m 131.4328,180.77501 -0.59634,-2.51199 -1.05834,-1.05833 -0.7276,-1.19063 -1.05833,-0.99219 -0.0661,-1.52135 -1.45521,-1.85208 -1.05833,0.85989 -1.38906,-2.3151 1.32291,-1.71979 -0.39687,-1.38907 0.39687,-1.78593 -2.51354,-1.12448 -2.05052,-2.84427 0.66146,-0.8599 -0.13229,-1.38906 -1.5875,0.92604 -0.39688,-1.05833 -2.05052,-1.78594 -0.31936,-0.1018 -1.59887,1.02784 -2.3151,0.99219 0.13229,1.5875 -1.45521,1.65364 -3.70416,-1.19062 -0.59532,1.38906 -2.18281,-0.19844 -1.98437,-3.77031 -1.19063,0.99219 -3.439583,-1.5875 -2.447395,1.25677 -1.653646,0.19844 -1.5875,3.30729 1.5875,1.5875 0.859896,2.77812 0.06614,2.38125 -1.058333,1.05834 -4.497917,-1.45521 -0.396875,1.38906 -0.939994,-0.41341 0.01395,0.21497 -0.06615,2.24896 1.918229,1.05834 5.622396,6.01927 3.968752,4.36562 1.12448,-1.19062 -0.46302,-2.38125 1.98437,0.46302 1.12448,1.5875 0.99219,-0.52917 1.12448,-2.3151 4.23333,0.85989 -0.0661,1.98438 -0.8599,1.38906 0.0661,1.91823 2.77812,2.3151 0.26458,2.51355 0.73484,0.97978 1.44798,-2.83187 1.05833,-1.78594 1.91823,0.52917 3.04271,-0.7276 1.78594,0.66146 2.51354,-1.65365 1.12448,-1.38906 0.85989,-0.26459 h 0.76016 l 2.04691,-2.42465 z" /><path
       id="path5864"
       style="display:inline;fill:#ccff00;fill-opacity:1;stroke:none;stroke-width:0.365;stroke-dasharray:1.46, 0.365;stroke-dashoffset:0;stroke-opacity:1"
       d="m 156.46745,154.56576 -3.53828,0.74466 -4.49792,3.70416 -0.99219,-0.19843 1.19063,-2.18282 h -3.175 v -1.12448 l -1.45521,-2.3151 -2.31511,-0.66146 -4.6302,0.19844 -6.41615,-0.33073 -1.71979,1.45521 -1.12448,-2.18281 -0.79375,0.0661 -5.09323,-0.19844 -1.25677,-1.05833 -0.0992,-0.062 -0.82682,0.72347 -1.45521,-0.39688 -2.64583,2.51355 1.5875,3.63802 -0.25322,0.16278 0.31936,0.1018 2.05052,1.78594 0.39688,1.05833 1.5875,-0.92604 0.13229,1.38906 -0.66146,0.8599 2.05052,2.84427 2.51354,1.12448 -0.39687,1.78593 0.39687,1.38907 -1.32291,1.71979 1.38906,2.3151 1.05833,-0.85989 1.45521,1.85208 0.0661,1.52135 1.05833,0.99219 0.7276,1.19063 1.05834,1.05833 0.59634,2.51199 3.56671,-1.72857 2.57969,-1.5875 h 3.20807 l 0.39688,-2.4474 0.99218,-0.76068 1.05834,0.89297 1.52135,-0.23151 0.56224,-2.14974 0.92604,0.92604 0.95912,-1.25677 4.23333,2.64584 2.0836,-1.68672 1.91822,-0.56224 -1.4552,-1.9513 0.16536,-1.91823 -0.13229,-1.48829 1.78594,-1.81901 -0.1323,-4.13411 -0.52916,-2.61276 1.55443,-3.96875 z" /><path
       id="path5925"
       style="display:inline;fill:#c87137;fill-opacity:1;stroke:none;stroke-width:0.365;stroke-dasharray:1.46, 0.365;stroke-dashoffset:0;stroke-opacity:1"
       d="m 160.88889,135.54883 -2.99879,-0.54518 -2.71198,-0.92605 -4.10104,-0.7276 -3.175,-0.46302 -1.5875,0.66146 h -2.91041 l -4.96094,-1.5875 -4.10104,-1.05834 -0.33073,-1.91823 -1.25677,-0.92604 -1.05834,-2.38125 -2.44739,0.59532 -2.05052,-0.8599 -1.49862,-1.87327 -0.0233,0.0331 -3.55431,0.14005 0.0935,-1.77716 -3.04013,-0.14056 -1.5906,-1.82418 -3.08663,-0.18706 -5.379,-2.05776 -1.40302,1.87069 -2.90008,0.98237 -0.23358,4.6302 -1.26297,2.9466 v 3.18068 l -1.14566,4.83226 2.92281,1.80971 1.26298,1.26246 -0.7953,1.12293 -0.46406,0.0496 0.3359,0.21291 1.45521,1.65365 2.77812,-0.92604 4.69636,0.46302 3.30729,0.19843 1.71979,2.57969 1.52135,0.66146 2.05052,3.30729 -0.99218,1.05833 -1.7198,-0.39687 0.52917,0.99219 -0.23151,0.20257 0.0992,0.062 1.25677,1.05833 5.09323,0.19844 0.79375,-0.0661 1.12448,2.18281 1.71979,-1.45521 6.41615,0.33073 4.6302,-0.19844 2.31511,0.66146 1.45521,2.3151 v 1.12448 h 3.175 l -1.19063,2.18282 0.99219,0.19843 4.49792,-3.70416 3.53828,-0.74466 -0.56585,-0.91932 -2.87735,-1.52136 -1.38906,-1.0914 -1.5875,-0.39688 -0.82682,-2.05052 -0.16537,-2.14974 0.0661,-2.64583 2.38125,-2.05052 -0.0662,-2.48047 1.91823,-0.8599 3.175,0.59531 1.5875,-0.0661 0.49609,1.15755 1.91823,-1.32292 0.66146,-2.14974 z" /><path
       id="path5984"
       style="display:inline;fill:#66ff00;fill-opacity:1;stroke:none;stroke-width:0.365;stroke-dasharray:1.46, 0.365;stroke-dashoffset:0;stroke-opacity:1"
       d="m 188.43036,114.24264 -0.37776,-0.0749 -2.77812,1.32291 -2.11667,-2.05052 -1.65364,0.72761 -1.98438,-0.8599 -5.42396,-1.38906 -1.05833,-1.5875 -1.52135,-2.97656 0.52916,-1.91823 -2.84427,-0.99219 -1.5875,-1.65365 1.19063,-1.98437 -2.05052,-0.46302 -0.72761,-1.91823 -3.10885,-0.79375 -0.99219,-2.116667 -0.79375,0.264584 -0.99219,-0.992188 -0.13332,-0.16123 -1.55805,1.04438 h -3.76979 l -1.62109,-0.892968 -1.88464,0.09922 0.0987,1.389063 -1.65365,0.992187 -1.38906,-0.429948 -3.43958,1.289844 -0.23151,3.538803 -2.54662,1.28984 -2.38125,-0.0661 -0.58549,-0.63046 -0.73846,2.75384 1.16944,1.91771 -0.23409,2.15181 -0.74828,2.01073 -1.82418,2.19831 -0.23357,1.77767 -2.01125,1.54358 -0.74828,-1.12293 -3.04064,0.46767 0.98237,1.40353 -3.88193,1.35651 -0.7953,3.08663 -1.23972,1.7446 1.49862,1.87327 2.05052,0.8599 2.44739,-0.59532 1.05834,2.38125 1.25677,0.92604 0.33073,1.91823 4.10104,1.05834 4.96094,1.5875 h 2.91041 l 1.5875,-0.66146 3.175,0.46302 4.10104,0.7276 2.71198,0.92605 2.99879,0.54518 -0.0925,-0.32401 2.97656,-0.33073 1.71979,-0.26458 0.16537,-1.32292 3.47265,-0.7276 2.0836,-0.89297 0.99218,-1.35599 1.55443,0.52917 1.91823,-2.87735 2.11667,-0.13229 0.52916,-1.09141 -1.75286,-2.94349 1.5875,-0.76067 0.79375,0.42995 3.47265,-1.62058 2.41433,1.91823 0.89297,0.46302 3.83645,0.0331 2.8112,-0.16537 0.13229,-2.05052 -1.88515,-1.38906 -0.92604,-3.77031 z" /><path
       id="path6043"
       style="display:inline;fill:#cdde87;fill-opacity:1;stroke:none;stroke-width:0.365;stroke-dasharray:1.46, 0.365;stroke-dashoffset:0;stroke-opacity:1"
       d="m 186.59326,78.902161 -3.93568,1.488281 -1.4552,0.330729 -0.8599,-1.02526 -1.9513,0.429948 -2.48047,2.017447 -4.13411,1.091407 0.52916,2.447396 -0.13229,6.184635 0.99219,1.521354 2.05052,2.282031 0.0656,3.307292 -1.68672,-0.959115 -1.25677,-1.81901 -2.87735,-0.429948 -4.69583,-2.215885 -3.40651,0.165364 -1.35289,0.906922 0.13332,0.16123 0.99219,0.992188 0.79375,-0.264584 0.99219,2.116667 3.10885,0.79375 0.72761,1.91823 2.05052,0.46302 -1.19063,1.98437 1.5875,1.65365 2.84427,0.99219 -0.52916,1.91823 1.52135,2.97656 1.05833,1.5875 5.42396,1.38906 1.98438,0.8599 1.65364,-0.72761 2.11667,2.05052 2.77812,-1.32291 0.37776,0.0749 -0.18345,-0.38292 1.42213,-0.99219 0.62839,-1.05833 2.14974,-0.0656 1.15755,-1.45521 0.99219,-0.23151 1.62057,-1.5875 1.28984,1.19062 1.55443,0.59532 1.25677,0.62838 2.48047,0.69453 1.48828,1.71979 1.35599,1.38907 2.51354,0.26458 2.64584,0.39687 0.0661,-1.12447 -2.24896,-0.79375 -2.54661,-1.45521 -0.39688,-3.07578 -0.69453,-1.88516 h -1.48828 l -0.95911,-2.18281 -1.48828,-2.18282 -1.19063,-0.46302 -2.18281,-1.65364 -0.26458,-2.315106 1.55442,-0.03307 0.59532,-2.94349 -3.20808,-0.859895 -0.16536,-1.256771 -1.25677,0.06615 -0.62839,-2.182813 -1.19062,-1.389062 v -1.752865 l -0.82683,-1.554427 1.35599,-0.859896 1.19063,-3.274219 -0.95912,-0.859895 -1.25677,-0.09922 -1.65364,-1.918229 z" /></g></svg>
